<?xml version="1.0" encoding="UTF-8" standalone="no"?>
<!-- Generator: Adobe Illustrator 26.0.1, SVG Export Plug-In . SVG Version: 6.00 Build 0)  -->

<svg
   version="1.1"
   id="Capa_1"
   x="0px"
   y="0px"
   viewBox="0 0 24 24"
   style="enable-background:new 0 0 24 24;"
   xml:space="preserve"
   width="512"
   height="512"
   sodipodi:docname="facebookLogo.svg"
   inkscape:version="1.4.3 (0d15f75, 2025-12-25)"
   xmlns:inkscape="http://www.inkscape.org/namespaces/inkscape"
   xmlns:sodipodi="http://sodipodi.sourceforge.net/DTD/sodipodi-0.dtd"
   xmlns="http://www.w3.org/2000/svg"
   xmlns:svg="http://www.w3.org/2000/svg"><defs
   id="defs1" /><sodipodi:namedview
   id="namedview1"
   pagecolor="#ffffff"
   bordercolor="#000000"
   borderopacity="0.25"
   inkscape:showpageshadow="2"
   inkscape:pageopacity="0.0"
   inkscape:pagecheckerboard="0"
   inkscape:deskcolor="#d1d1d1"
   inkscape:zoom="0.96679688"
   inkscape:cx="256"
   inkscape:cy="256"
   inkscape:window-width="1360"
   inkscape:window-height="697"
   inkscape:window-x="-8"
   inkscape:window-y="-8"
   inkscape:window-maximized="1"
   inkscape:current-layer="Capa_1" />
<g
   id="g1">
	<path
   d="M24,12.073c0,5.989-4.394,10.954-10.13,11.855v-8.363h2.789l0.531-3.46H13.87V9.86c0-0.947,0.464-1.869,1.95-1.869h1.509   V5.045c0,0-1.37-0.234-2.679-0.234c-2.734,0-4.52,1.657-4.52,4.656v2.637H7.091v3.46h3.039v8.363C4.395,23.025,0,18.061,0,12.073   c0-6.627,5.373-12,12-12S24,5.445,24,12.073z"
   id="path1" />
</g>















<path
   style="fill:#1877f2;stroke-width:1.03434;fill-opacity:1"
   d="M 200.37207,506.80888 C 111.47445,486.23744 40.919063,421.80986 12.929866,335.6462 -11.172441,261.4482 0.78666886,178.37133 44.793895,114.29495 55.41268,98.83355 61.996678,90.953805 75.958247,76.997374 127.732,25.242676 196.70338,-1.1305132 270.22222,2.7149565 332.54099,5.9745962 390.95568,32.047944 435.5356,76.502447 c 30.0025,29.918083 49.81095,61.756903 62.95261,101.185893 8.95004,26.85284 12.45086,49.18982 12.43576,79.346 -0.0156,31.08533 -3.40032,52.9827 -12.39237,80.17169 -27.30787,82.56998 -95.20126,146.15117 -178.91948,167.55555 -7.39555,1.89083 -15.65737,3.76403 -18.35959,4.16267 l -4.91314,0.72478 v -88.55381 -88.55381 h 29.77531 29.77529 l 5.70422,-37.23636 5.70421,-37.23636 h -35.5515 -35.5515 l 0.35744,-29.22021 c 0.33977,-27.77617 0.47763,-29.52689 2.78957,-35.42626 3.20753,-8.18463 10.98247,-15.91115 19.33311,-19.2127 5.59654,-2.21267 7.99312,-2.44791 28.60527,-2.80778 l 22.49697,-0.39277 v -31.89503 -31.89503 l -2.84445,-0.57486 c -5.69047,-1.15005 -31.08822,-3.64274 -43.70101,-4.28909 -51.05104,-2.616144 -87.09518,17.88637 -100.89774,57.39234 -5.54495,15.87085 -5.84918,18.72505 -6.37334,59.79209 l -0.49177,38.5293 h -32.48626 -32.48624 v 37.23636 37.23636 h 32.58182 32.58182 v 88.43637 88.43636 l -2.32728,-0.0722 c -1.28,-0.0397 -7.11257,-1.17959 -12.96126,-2.53301 z"
   id="path2"
   transform="scale(0.046875)" /></svg>
