<?xml version="1.0" encoding="UTF-8" standalone="no"?>
<!-- Generator: Adobe Illustrator 26.0.1, SVG Export Plug-In . SVG Version: 6.00 Build 0)  -->

<svg
   version="1.1"
   id="Capa_1"
   x="0px"
   y="0px"
   viewBox="0 0 24 24"
   style="enable-background:new 0 0 24 24;"
   xml:space="preserve"
   width="512"
   height="512"
   sodipodi:docname="instagramLogo.svg"
   inkscape:version="1.4.3 (0d15f75, 2025-12-25)"
   xmlns:inkscape="http://www.inkscape.org/namespaces/inkscape"
   xmlns:sodipodi="http://sodipodi.sourceforge.net/DTD/sodipodi-0.dtd"
   xmlns="http://www.w3.org/2000/svg"
   xmlns:svg="http://www.w3.org/2000/svg"><defs
   id="defs2" /><sodipodi:namedview
   id="namedview2"
   pagecolor="#ffffff"
   bordercolor="#000000"
   borderopacity="0.25"
   inkscape:showpageshadow="2"
   inkscape:pageopacity="0.0"
   inkscape:pagecheckerboard="0"
   inkscape:deskcolor="#d1d1d1"
   inkscape:zoom="0.96679688"
   inkscape:cx="255.48283"
   inkscape:cy="256"
   inkscape:window-width="1360"
   inkscape:window-height="697"
   inkscape:window-x="-8"
   inkscape:window-y="-8"
   inkscape:window-maximized="1"
   inkscape:current-layer="Capa_1" />
<g
   id="g2">
	<path
   d="M12,2.162c3.204,0,3.584,0.012,4.849,0.07c1.308,0.06,2.655,0.358,3.608,1.311c0.962,0.962,1.251,2.296,1.311,3.608   c0.058,1.265,0.07,1.645,0.07,4.849c0,3.204-0.012,3.584-0.07,4.849c-0.059,1.301-0.364,2.661-1.311,3.608   c-0.962,0.962-2.295,1.251-3.608,1.311c-1.265,0.058-1.645,0.07-4.849,0.07s-3.584-0.012-4.849-0.07   c-1.291-0.059-2.669-0.371-3.608-1.311c-0.957-0.957-1.251-2.304-1.311-3.608c-0.058-1.265-0.07-1.645-0.07-4.849   c0-3.204,0.012-3.584,0.07-4.849c0.059-1.296,0.367-2.664,1.311-3.608c0.96-0.96,2.299-1.251,3.608-1.311   C8.416,2.174,8.796,2.162,12,2.162 M12,0C8.741,0,8.332,0.014,7.052,0.072C5.197,0.157,3.355,0.673,2.014,2.014   C0.668,3.36,0.157,5.198,0.072,7.052C0.014,8.332,0,8.741,0,12c0,3.259,0.014,3.668,0.072,4.948c0.085,1.853,0.603,3.7,1.942,5.038   c1.345,1.345,3.186,1.857,5.038,1.942C8.332,23.986,8.741,24,12,24c3.259,0,3.668-0.014,4.948-0.072   c1.854-0.085,3.698-0.602,5.038-1.942c1.347-1.347,1.857-3.184,1.942-5.038C23.986,15.668,24,15.259,24,12   c0-3.259-0.014-3.668-0.072-4.948c-0.085-1.855-0.602-3.698-1.942-5.038c-1.343-1.343-3.189-1.858-5.038-1.942   C15.668,0.014,15.259,0,12,0z"
   id="path1" />
	<path
   d="M12,5.838c-3.403,0-6.162,2.759-6.162,6.162c0,3.403,2.759,6.162,6.162,6.162s6.162-2.759,6.162-6.162   C18.162,8.597,15.403,5.838,12,5.838z M12,16c-2.209,0-4-1.791-4-4s1.791-4,4-4s4,1.791,4,4S14.209,16,12,16z"
   id="path2" />
	<circle
   cx="18.406"
   cy="5.594"
   r="1.44"
   id="circle2" />
</g>















<path
   style="fill:#ffffff;stroke-width:22.0656"
   d="m 160.77931,510.45667 c -9.98917,-0.4486 -22.55644,-1.3721 -27.92728,-2.05222 C 63.094681,499.57087 19.633048,460.59605 6.200784,394.82815 1.4857968,371.74234 1.0343434,359.61127 1.0343434,256 c 0,-101.72834 0.4580774,-114.8749 4.789021,-137.44208 C 16.860727,61.045716 52.890399,22.146542 107.98696,8.2577394 124.0106,4.2184833 137.15814,2.6921472 166.61196,1.4517925 199.90314,0.04984007 351.88899,0.82829209 369.77778,2.4923818 450.02118,9.9569581 497.22165,53.320939 507.89949,129.38747 c 2.53017,18.02439 3.54807,54.34779 3.54807,126.61253 0,72.48662 -1.01768,108.58658 -3.5746,126.8015 -10.65448,75.90018 -57.64926,119.01643 -138.09518,126.69807 -14.40332,1.37534 -182.53956,2.14531 -208.99847,0.9571 z M 356.7459,464.92752 c 24.75521,-1.43732 38.48691,-4.02438 52.47831,-9.8869 28.52947,-11.95412 45.91068,-35.02797 52.69542,-69.95402 C 465.1544,368.4348 465.94166,343.17044 465.94209,256 465.94251,171.87 465.189,145.12982 462.35808,128.81358 454.49006,83.465552 429.1619,58.143932 383.22424,49.700214 367.57328,46.823441 340.82213,46.057494 256,46.057494 c -84.13084,0 -110.87064,0.753593 -127.18642,3.584427 -48.22529,8.367228 -73.735952,36.613153 -80.812516,89.477269 -1.664144,12.43167 -2.512045,188.33329 -1.037291,215.19166 1.608363,29.29167 4.828872,44.61468 12.700328,60.42749 15.824464,31.78945 44.395119,47.15549 93.155929,50.10166 20.00038,1.20844 183.41219,1.27857 203.92587,0.0875 z"
   id="path3"
   transform="scale(0.046875)" /><path
   style="fill:#ffffff;stroke-width:22.0656"
   d="m 243.07071,386.22421 c -57.99297,-5.78214 -105.87176,-50.34539 -116.02007,-107.98583 -2.10521,-11.95716 -2.10521,-32.5196 0,-44.47676 9.53575,-54.16122 52.43485,-97.06759 106.71098,-106.72908 11.9993,-2.13595 32.47746,-2.13595 44.47676,0 54.27613,9.66149 97.17524,52.56786 106.71098,106.72908 2.10521,11.95716 2.10521,32.5196 0,44.47676 -8.39601,47.68771 -42.88077,87.26279 -89.23167,102.40322 -15.48882,5.05939 -36.03899,7.2385 -52.64698,5.58261 z m 35.68485,-47.4818 c 30.00219,-8.48003 51.4577,-30.15238 60.25022,-60.85915 3.27768,-11.44689 3.24211,-32.40493 -0.0749,-44.12164 -10.31495,-36.43582 -40.8267,-61.09272 -78.27634,-63.25604 -51.04194,-2.94848 -93.09745,39.10703 -90.14897,90.14897 2.33951,40.49985 31.16676,72.94104 71.18315,80.10704 8.73159,1.56363 28.12942,0.50694 37.06683,-2.01918 z"
   id="path4"
   transform="scale(0.046875)" /><path
   style="fill:#ffffff;stroke-width:22.0656"
   d="m 382.80467,147.76083 c -7.31804,-2.24658 -16.4006,-11.51167 -18.62383,-18.99811 -2.20603,-7.4285 -2.06939,-13.25179 0.47022,-20.03951 4.17584,-11.160934 13.98611,-18.211797 26.47402,-19.027469 6.29303,-0.411042 8.2028,-0.105746 12.92929,2.066876 7.9889,3.672249 11.76411,7.289544 15.47523,14.827893 2.99074,6.07507 3.23081,7.29651 2.78275,14.15836 -0.57843,8.85837 -3.14191,14.54461 -9.2133,20.43669 -7.67766,7.45092 -19.25602,9.96395 -30.29438,6.57527 z"
   id="path6"
   transform="scale(0.046875)" /></svg>
