<?xml version="1.0" encoding="UTF-8" standalone="no"?>
<!-- Generator: Adobe Illustrator 26.0.1, SVG Export Plug-In . SVG Version: 6.00 Build 0)  -->

<svg
   version="1.1"
   id="Capa_1"
   x="0px"
   y="0px"
   viewBox="0 0 24 24"
   style="enable-background:new 0 0 24 24;"
   xml:space="preserve"
   width="512"
   height="512"
   sodipodi:docname="whatsappLogo.svg"
   inkscape:version="1.4.3 (0d15f75, 2025-12-25)"
   xmlns:inkscape="http://www.inkscape.org/namespaces/inkscape"
   xmlns:sodipodi="http://sodipodi.sourceforge.net/DTD/sodipodi-0.dtd"
   xmlns="http://www.w3.org/2000/svg"
   xmlns:svg="http://www.w3.org/2000/svg"><defs
   id="defs1" /><sodipodi:namedview
   id="namedview1"
   pagecolor="#ffffff"
   bordercolor="#000000"
   borderopacity="0.25"
   inkscape:showpageshadow="2"
   inkscape:pageopacity="0.0"
   inkscape:pagecheckerboard="0"
   inkscape:deskcolor="#d1d1d1"
   inkscape:zoom="0.96679688"
   inkscape:cx="255.48283"
   inkscape:cy="256"
   inkscape:window-width="1360"
   inkscape:window-height="697"
   inkscape:window-x="-8"
   inkscape:window-y="-8"
   inkscape:window-maximized="1"
   inkscape:current-layer="Capa_1" />
<g
   id="WA_Logo">
	<g
   id="g1">
		<path
   style="fill-rule:evenodd;clip-rule:evenodd;"
   d="M20.463,3.488C18.217,1.24,15.231,0.001,12.05,0    C5.495,0,0.16,5.334,0.157,11.892c-0.001,2.096,0.547,4.142,1.588,5.946L0.057,24l6.304-1.654    c1.737,0.948,3.693,1.447,5.683,1.448h0.005c6.554,0,11.89-5.335,11.893-11.893C23.944,8.724,22.708,5.735,20.463,3.488z     M12.05,21.785h-0.004c-1.774,0-3.513-0.477-5.031-1.378l-0.361-0.214l-3.741,0.981l0.999-3.648l-0.235-0.374    c-0.99-1.574-1.512-3.393-1.511-5.26c0.002-5.45,4.437-9.884,9.889-9.884c2.64,0,5.122,1.03,6.988,2.898    c1.866,1.869,2.893,4.352,2.892,6.993C21.932,17.351,17.498,21.785,12.05,21.785z M17.472,14.382    c-0.297-0.149-1.758-0.868-2.031-0.967c-0.272-0.099-0.47-0.149-0.669,0.148s-0.767,0.967-0.941,1.166    c-0.173,0.198-0.347,0.223-0.644,0.074c-0.297-0.149-1.255-0.462-2.39-1.475c-0.883-0.788-1.48-1.761-1.653-2.059    s-0.018-0.458,0.13-0.606c0.134-0.133,0.297-0.347,0.446-0.521C9.87,9.97,9.919,9.846,10.019,9.647    c0.099-0.198,0.05-0.372-0.025-0.521C9.919,8.978,9.325,7.515,9.078,6.92c-0.241-0.58-0.486-0.501-0.669-0.51    C8.236,6.401,8.038,6.4,7.839,6.4c-0.198,0-0.52,0.074-0.792,0.372c-0.272,0.298-1.04,1.017-1.04,2.479    c0,1.463,1.065,2.876,1.213,3.074c0.148,0.198,2.095,3.2,5.076,4.487c0.709,0.306,1.263,0.489,1.694,0.626    c0.712,0.226,1.36,0.194,1.872,0.118c0.571-0.085,1.758-0.719,2.006-1.413c0.248-0.694,0.248-1.29,0.173-1.413    C17.967,14.605,17.769,14.531,17.472,14.382z"
   id="path1" />
	</g>
</g>















<path
   style="fill:#ffffff;stroke-width:22.0656"
   d="M 3.0747873,507.60404 C 3.4670424,506.0396 11.425306,476.90439 20.759817,442.85913 L 37.731656,380.95866 30.043371,365.28337 C -4.5464053,294.75987 -4.766777,213.74949 29.440801,143.77374 42.154437,117.76645 55.302344,99.058253 75.507071,78.225903 97.208434,55.850427 118.87302,40.022439 145.84242,26.839412 171.47732,14.308709 193.85567,7.2424769 221.34949,2.9971525 238.35274,0.37167919 275.22995,0.33634498 292.20202,2.9292645 360.69186,13.392845 418.98063,48.000533 459.73782,102.4 c 26.06428,34.78852 41.72478,73.05819 48.25259,117.91515 2.16176,14.85494 2.46149,50.18049 0.53973,63.61212 -8.54656,59.73394 -32.03505,107.49654 -73.01917,148.48066 -29.13346,29.13347 -62.01541,49.45872 -100.3837,62.04997 -62.43909,20.49052 -127.31513,15.98621 -188.8237,-13.10992 l -10.91664,-5.16402 -65.225764,17.13226 c -35.87417,9.42274 -65.8048691,17.13226 -66.5126661,17.13226 -0.8872273,0 -1.0654064,-0.8834 -0.5737126,-2.84444 z M 291.68485,462.43429 c 37.66287,-6.9227 69.20049,-21.05416 97.74545,-43.79805 8.12567,-6.47432 23.9946,-22.2456 31.18931,-30.99739 19.42048,-23.62346 34.37002,-53.48708 41.56167,-83.02471 7.79622,-32.02072 7.88776,-69.56997 0.24587,-100.84848 C 441.53421,118.25023 370.55824,54.882544 283.4101,43.93837 269.76553,42.224868 240.99048,42.497589 227.55556,44.467743 141.68436,57.060265 72.327517,119.75683 51.866036,203.28596 c -7.287439,29.74924 -7.832932,62.34915 -1.574366,94.08778 4.260521,21.60609 14.700684,47.94143 26.582984,67.05567 2.945607,4.73838 5.355649,9.35369 5.355649,10.25621 0,0.90253 -4.668103,18.61695 -10.373562,39.36539 -5.705459,20.74843 -10.243641,37.8489 -10.084848,38.00104 0.158792,0.15214 18.16066,-4.40718 40.004147,-10.13184 l 39.71544,-10.40846 5.79567,3.33963 c 26.60173,15.3287 54.79284,25.00659 84.40578,28.97618 11.19594,1.50081 49.0267,0.62221 59.99192,-1.39327 z"
   id="path2"
   transform="scale(0.046875)" /><path
   style="fill:#25d366;stroke-width:22.0656;fill-opacity:1"
   d="m 306.16566,373.40059 c -13.32385,-2.97229 -45.41531,-15.34531 -58.2758,-22.4685 -31.74197,-17.58132 -63.87245,-47.57716 -90.60835,-84.58866 -24.17273,-33.4632 -32.16584,-58.61498 -26.88585,-84.60118 3.38947,-16.68176 16.62281,-36.65389 27.96258,-42.20193 5.03794,-2.46483 6.3588,-2.65256 16.37209,-2.32689 10.08994,0.32816 11.08808,0.55048 13.55442,3.01901 2.40656,2.40869 7.7586,14.40918 22.20573,49.79033 l 4.52484,11.08136 -2.5218,5.46001 c -1.38699,3.00301 -6.3618,10.06717 -11.05514,15.69814 -5.97587,7.16975 -8.53333,11.06138 -8.53333,12.98499 0,1.51077 2.0406,6.0566 4.53467,10.10186 15.11536,24.51639 36.56785,45.81665 59.82275,59.39825 10.72978,6.26652 27.26339,13.31323 31.2367,13.31323 3.88195,0 7.8628,-3.80975 20.19089,-19.32297 10.79505,-13.5841 11.33917,-14.06293 15.25795,-13.42701 7.15433,1.16099 58.56082,26.37749 60.26506,29.56191 2.36742,4.42356 0.23954,19.78314 -4.15635,30.00166 -4.90472,11.40133 -26.27073,26.23163 -41.7578,28.98439 -8.27524,1.47089 -24.52487,1.23928 -32.13326,-0.458 z"
   id="path3"
   transform="scale(0.046875)" /><path
   style="fill:#25d366;fill-opacity:1;stroke-width:22.0656"
   d="m 3.620202,508.57899 c 0,-0.45934 7.68,-28.88546 17.066667,-63.16915 9.386666,-34.2837 17.066666,-63.16822 17.066666,-64.18783 0,-1.0196 -3.213884,-8.54985 -7.141963,-16.73387 C 18.557017,339.37285 11.271604,316.3957 7.1997271,290.65051 4.6272567,274.38559 4.0920546,243.743 6.082011,226.65652 11.565176,179.57612 30.37272,133.9885 59.478686,97.228283 67.984197,86.486005 89.666322,64.890392 100.84848,56.023551 c 26.6783,-21.154422 61.43547,-38.487302 93.82299,-46.7881023 24.9906,-6.4049984 30.9337,-7.0810028 62.36287,-7.0935275 31.27568,-0.012464 36.9588,0.6390027 62.57778,7.1734019 C 423.30809,35.76411 499.98489,126.53495 508.53116,232.95975 c 5.98698,74.55462 -20.39753,145.86416 -73.58505,198.87863 -33.86932,33.75913 -72.59484,55.67667 -119.54521,67.65918 -22.82599,5.82557 -57.53665,8.30807 -81.54898,5.8324 -27.35497,-2.8203 -56.75717,-10.91393 -83.93679,-23.10553 l -14.54548,-6.52446 -8.72725,2.23426 c -4.79999,1.22885 -33.887054,8.81454 -64.637927,16.8571 -30.750873,8.04255 -56.467236,14.62281 -57.1474743,14.62281 -0.6802382,0 -1.2367967,-0.37582 -1.2367967,-0.83515 z M 282.37576,463.88961 c 34.45004,-3.16721 72.83654,-18.64755 103.43434,-41.71255 10.6912,-8.05916 31.45594,-28.84283 39.62704,-39.66318 22.62924,-29.96613 37.01553,-65.31897 41.5915,-102.20681 1.48928,-12.00533 1.48495,-41.83326 -0.008,-53.78586 C 458.16494,155.61094 412.87036,92.902881 348.52795,62.473777 315.47379,46.841656 281.51528,40.54567 242.8305,42.877226 c -19.95872,1.202925 -33.33574,3.767315 -51.99414,9.967337 -31.76121,10.553972 -57.47622,26.165131 -81.56319,49.515667 -18.466725,17.90212 -30.854696,34.9637 -42.085419,57.963 -15.043605,30.80767 -21.281351,57.84606 -21.356723,92.57374 -0.08932,41.15604 8.920339,74.50566 30.02764,111.14852 2.93551,5.09613 5.337292,10.13318 5.337292,11.19347 0,1.06028 -4.506099,18.64402 -10.013553,39.07497 -5.507453,20.43095 -9.738574,37.42216 -9.402491,37.75824 0.519127,0.51913 77.279834,-18.81495 78.168034,-19.68854 0.17138,-0.16856 8.31683,3.73209 18.10101,8.66812 22.58198,11.39237 43.08483,18.23632 66.92074,22.33846 9.50864,1.63644 41.9671,1.9188 57.40606,0.4994 z"
   id="path4"
   transform="scale(0.046875)" /></svg>
